<?xml version="1.0" encoding="UTF-8"?>
<svg id="Layer_1" data-name="Layer 1" xmlns="http://www.w3.org/2000/svg" version="1.1" viewBox="0 0 128 128">
  <path d="M7.653,127.471c-1.83,0-3.318-1.489-3.318-3.318v-11.852h-1.016c-1.83,0-3.319-1.489-3.319-3.318v-4.334c0-1.83,1.489-3.319,3.319-3.319h7.517v-31.357c0-.635.516-1.151,1.151-1.151s1.151.516,1.151,1.151v31.357h34.54v-24.855c0-1.83,1.489-3.318,3.318-3.318h26.006c1.83,0,3.318,1.489,3.318,3.318v24.855h34.54v-31.357c0-.635.516-1.151,1.151-1.151s1.151.516,1.151,1.151v31.357h7.518c1.83,0,3.318,1.489,3.318,3.319v4.334c0,1.83-1.489,3.318-3.318,3.318h-1.016v11.852c0,1.83-1.489,3.318-3.319,3.318H7.653ZM6.637,125.168h114.726v-12.868h-8.533v5.35c0,.635-.516,1.151-1.151,1.151s-1.151-.516-1.151-1.151v-5.35H17.473v5.35c0,.635-.516,1.151-1.151,1.151s-1.151-.516-1.151-1.151v-5.35H6.637v12.868ZM2.303,109.998h123.395v-6.366H2.303v6.366ZM65.151,101.329h12.868v-25.871h-12.868v25.871ZM49.981,101.329h12.868v-25.871h-12.868v25.871Z" style="fill: #000; stroke-width: 0px;"/>
  <path d="M64,38.616c-6.61,0-11.987-5.377-11.987-11.987s5.378-11.987,11.987-11.987c6.603.007,11.981,5.385,11.987,11.988,0,6.609-5.378,11.986-11.987,11.986ZM64,16.944c-5.34,0-9.685,4.344-9.685,9.685s4.344,9.685,9.685,9.685c2.587,0,5.019-1.007,6.848-2.837s2.837-4.261,2.837-6.848c0-5.34-4.344-9.685-9.685-9.685Z" style="fill: #000; stroke-width: 0px;"/>
  <path d="M122.518,66.789c-.311,0-.6-.12-.817-.337l-5.688-5.688-5.688,5.688c-.217.217-.506.337-.814.337s-.597-.12-.814-.337l-5.688-5.687-5.687,5.688c-.217.217-.506.337-.814.337s-.597-.12-.814-.337l-5.688-5.687-5.688,5.688c-.217.217-.506.337-.814.337s-.596-.12-.814-.337l-5.687-5.687-5.688,5.688c-.218.217-.506.337-.814.337s-.597-.12-.814-.337l-5.688-5.687-5.688,5.688c-.217.217-.506.337-.814.337s-.597-.12-.814-.337l-5.687-5.687-5.688,5.688c-.217.217-.506.337-.814.337s-.596-.12-.814-.337l-5.688-5.687-5.688,5.688c-.217.217-.506.337-.814.337s-.597-.12-.814-.337l-5.687-5.687-5.688,5.688c-.217.217-.506.337-.814.337s-.597-.12-.814-.337l-5.688-5.687-5.688,5.688c-.217.217-.507.337-.814.337-.152,0-.299-.03-.44-.088-.432-.179-.711-.596-.711-1.064v-14.154h.014l-.002-1.03c-.002-.164.03-.324.096-.474l10.252-22.558c.539-1.178,1.726-1.942,3.024-1.944h21.307L61.571,1.523c.652-.641,1.514-.993,2.429-.993s1.776.353,2.429.993l22.545,23.954h19.25c1.216,0,2.332.663,2.914,1.731l12.392,22.708c.089.165.137.356.136.547v15.175c0,.467-.279.885-.71,1.064-.14.058-.285.087-.434.087h-.004ZM103.01,57.985c.307,0,.596.12.814.337l5.688,5.688,5.687-5.688c.217-.217.507-.337.814-.337s.596.12.814.337l4.536,4.536v-11.24H6.637v11.24l4.536-4.536c.217-.217.506-.337.814-.337s.597.12.814.337l5.688,5.688,5.688-5.688c.217-.217.506-.337.814-.337s.597.12.814.337l5.688,5.688,5.688-5.688c.217-.217.507-.337.814-.337s.597.12.814.337l5.688,5.687,5.688-5.688c.217-.217.506-.337.814-.337s.597.12.814.337l5.688,5.688,5.688-5.688c.217-.217.506-.337.814-.337s.596.12.814.337l5.687,5.688,5.688-5.688c.218-.217.506-.337.814-.337s.597.12.814.337l5.687,5.687,5.688-5.688c.217-.217.506-.337.814-.337s.596.12.814.337l5.688,5.688,5.688-5.688c.217-.217.506-.337.814-.337ZM7.274,49.316h113.307l-11.747-21.536h-17.691l8.371,8.894c.282.299.383.729.265,1.121-.118.393-.439.696-.838.79-.087.021-.176.031-.265.031-.316,0-.622-.132-.838-.362L64,2.302,30.163,38.255c-.219.233-.517.361-.838.361-.295,0-.575-.111-.79-.313-.462-.436-.484-1.166-.048-1.628l8.371-8.895h-19.795l-9.79,21.536Z" style="fill: #000; stroke-width: 0px;"/>
  <path d="M64,27.78c-.635,0-1.151-.516-1.151-1.151v-4.334c0-.635.516-1.151,1.151-1.151s1.151.516,1.151,1.151v3.183h3.183c.635,0,1.151.516,1.151,1.151s-.516,1.151-1.151,1.151h-4.334Z" style="fill: #000; stroke-width: 0px;"/>
  <path d="M20.656,90.628c-.635,0-1.151-.516-1.151-1.151s.516-1.152,1.151-1.152h1.016v-11.852c0-1.83,1.489-3.318,3.318-3.318h10.836c1.83,0,3.318,1.489,3.318,3.318v11.852h1.016c.635,0,1.151.517,1.151,1.152s-.516,1.151-1.151,1.151h-19.505ZM23.975,88.326h12.868v-12.868h-12.868v12.868Z" style="fill: #000; stroke-width: 0px;"/>
  <path d="M87.839,90.628c-.635,0-1.151-.516-1.151-1.151s.516-1.152,1.151-1.152h1.016v-11.852c0-1.83,1.489-3.318,3.319-3.318h10.836c1.83,0,3.319,1.489,3.319,3.318v11.852h1.016c.635,0,1.151.517,1.151,1.152s-.516,1.151-1.151,1.151h-19.505ZM91.158,88.326h12.868v-12.868h-12.868v12.868Z" style="fill: #000; stroke-width: 0px;"/>
</svg>