<?xml version="1.0" encoding="UTF-8"?>
<svg id="Layer_1" data-name="Layer 1" xmlns="http://www.w3.org/2000/svg" version="1.1" viewBox="0 0 128 128">
  <path d="M23.166,127.5c-1.816,0-3.293-1.477-3.293-3.293v-7.459H5.964c-1.816,0-3.293-1.477-3.293-3.293v-17.202c0-1.816,1.477-3.293,3.293-3.293h13.909v-17.068H5.964c-1.816,0-3.293-1.477-3.293-3.293v-17.202c0-1.816,1.477-3.293,3.293-3.293h13.909v-17.068H5.964c-1.816,0-3.293-1.477-3.293-3.293V14.544c0-1.816,1.477-3.293,3.293-3.293h13.909V3.793c0-1.816,1.477-3.293,3.293-3.293h8.601c1.816,0,3.293,1.477,3.293,3.293v7.459h49.322V3.793c0-1.816,1.477-3.293,3.293-3.293h8.601c1.816,0,3.293,1.477,3.293,3.293v7.459h13.91c1.816,0,3.293,1.477,3.293,3.293v17.202c0,1.816-1.477,3.293-3.293,3.293h-15.052c-.63,0-1.142-.512-1.142-1.142V2.785h-10.617v31.112c0,.63-.512,1.142-1.142,1.142h-50.464v17.068h22.188c.63,0,1.142.512,1.142,1.142s-.512,1.142-1.142,1.142h-22.188v8.467h5.308c.63,0,1.142.512,1.142,1.142s-.512,1.142-1.142,1.142h-5.308v8.467h16.06c.63,0,1.142.512,1.142,1.142s-.512,1.142-1.142,1.142h-16.06v17.068h19.07c.63,0,1.142.512,1.142,1.142s-.512,1.142-1.142,1.142h-19.07v10.617h5.308c.63,0,1.142.512,1.142,1.142s-.512,1.142-1.142,1.142h-5.308v6.316h30.961c.63,0,1.143.512,1.143,1.142s-.513,1.142-1.143,1.142h-30.961v7.459c0,1.816-1.477,3.293-3.293,3.293h-8.601ZM22.158,125.215h10.617V2.785h-10.617v122.431ZM4.956,114.464h14.917v-19.218H4.956v19.218ZM4.956,73.609h14.917v-19.218H4.956v19.218ZM99.568,32.754h14.918V13.536h-14.918v19.218ZM35.06,32.754h49.322v-8.467h-5.308c-.63,0-1.142-.512-1.142-1.142s.512-1.142,1.142-1.142h5.308v-8.467h-49.322v8.467h5.308c.63,0,1.142.512,1.142,1.142s-.512,1.142-1.142,1.142h-5.308v8.467ZM4.956,32.754h14.917V13.536H4.956v19.218Z" style="fill: #000; stroke-width: 0px;"/>
  <path d="M12.415,24.287c-.63,0-1.142-.512-1.142-1.142s.512-1.142,1.142-1.142,1.142.512,1.142,1.142-.512,1.142-1.142,1.142Z" style="fill: #000; stroke-width: 0px;"/>
  <path d="M12.415,65.142c-.63,0-1.142-.512-1.142-1.142s.512-1.142,1.142-1.142,1.142.512,1.142,1.142-.512,1.142-1.142,1.142Z" style="fill: #000; stroke-width: 0px;"/>
  <path d="M12.415,105.997c-.63,0-1.142-.512-1.142-1.142s.512-1.143,1.142-1.143,1.142.513,1.142,1.143-.512,1.142-1.142,1.142Z" style="fill: #000; stroke-width: 0px;"/>
  <circle cx="107.027" cy="23.145" r="1.142" style="fill: #000; stroke-width: 0px;"/>
  <path d="M91.975,127.499c-.577,0-1.145-.153-1.643-.443-5.302-3.084-31.753-20.099-31.753-52.305,0-9.139,3.809-17.981,10.449-24.261,6.227-5.889,14.376-9.133,22.946-9.133.617,0,1.243.017,1.859.052,8.624.488,16.832,4.496,22.52,10.998,6.333,7.177,9.495,16.388,8.906,25.938-1.879,29.957-26.686,45.833-31.64,48.711-.499.29-1.067.444-1.644.444ZM91.959,43.64c-17.146.008-31.096,13.965-31.096,31.112,0,30.993,25.506,47.361,30.619,50.328l.507.294.506-.296c4.774-2.785,28.679-18.136,30.483-46.888.553-8.931-2.4-17.547-8.315-24.26-5.287-6.051-12.925-9.786-20.952-10.244-.584-.031-1.172-.047-1.752-.047h0Z" style="fill: #000; stroke-width: 0px;"/>
  <path d="M91.975,97.396c-12.487,0-22.645-10.158-22.645-22.645s10.159-22.645,22.645-22.645c12.471.015,22.63,10.174,22.645,22.646,0,12.485-10.158,22.644-22.645,22.644ZM91.975,54.391c-11.227,0-20.36,9.134-20.36,20.36s9.134,20.36,20.36,20.36c11.215-.012,20.348-9.146,20.36-20.359,0-11.228-9.134-20.362-20.36-20.362Z" style="fill: #000; stroke-width: 0px;"/>
  <path d="M91.974,112.453c-.226,0-.445-.066-.634-.192l-6.451-4.301c-.524-.349-.666-1.06-.316-1.585.212-.318.568-.508.952-.508.225,0,.444.066.632.192l5.817,3.878,4.466-2.981,1.351-.897c.188-.125.408-.192.634-.192.174,0,.349.041.506.118.365.18.608.545.634.951.026.406-.168.799-.506,1.024l-6.451,4.301c-.189.126-.408.192-.634.192Z" style="fill: #000; stroke-width: 0px;"/>
</svg>