<?xml version="1.0" encoding="UTF-8"?>
<svg id="Layer_1" data-name="Layer 1" xmlns="http://www.w3.org/2000/svg" version="1.1" viewBox="0 0 128 128">
  <path d="M22.845,128c-1.83,0-3.319-1.489-3.319-3.318v-7.518H5.507c-1.83,0-3.319-1.489-3.319-3.318v-17.338c0-1.83,1.489-3.318,3.319-3.318h14.019v-17.202H5.507c-1.83,0-3.319-1.489-3.319-3.318v-17.338c0-1.83,1.489-3.319,3.319-3.319h14.019v-17.202H5.507c-1.83,0-3.319-1.489-3.319-3.319V14.155c0-1.83,1.489-3.319,3.319-3.319h14.019V3.319c0-1.83,1.489-3.319,3.319-3.319h8.669c1.83,0,3.319,1.489,3.319,3.319v7.517h49.71V3.319c0-1.83,1.489-3.319,3.318-3.319h8.669c1.83,0,3.318,1.489,3.318,3.319v7.517h14.019c1.83,0,3.318,1.489,3.318,3.319v17.338c0,1.83-1.489,3.319-3.318,3.319h-15.17c-.635,0-1.151-.516-1.151-1.151V2.303h-10.701v31.357c0,.635-.516,1.151-1.151,1.151h-50.861v17.202h22.363c.635,0,1.151.516,1.151,1.151s-.516,1.151-1.151,1.151h-22.363v8.533h5.35c.635,0,1.151.516,1.151,1.151s-.516,1.151-1.151,1.151h-5.35v8.533h16.186c.635,0,1.151.516,1.151,1.151s-.516,1.151-1.151,1.151h-16.186v17.202h19.22c.635,0,1.151.516,1.151,1.151s-.516,1.151-1.151,1.151h-19.22v10.701h5.35c.635,0,1.151.516,1.151,1.151s-.516,1.151-1.151,1.151h-5.35v6.366h31.205c.635,0,1.152.516,1.152,1.151s-.517,1.151-1.152,1.151h-31.205v7.518c0,1.83-1.489,3.318-3.319,3.318h-8.669ZM21.829,125.697h10.701V2.303h-10.701v123.395ZM4.491,114.861h15.035v-19.369H4.491v19.369ZM4.491,73.685h15.035v-19.369H4.491v19.369ZM99.848,32.508h15.035V13.139h-15.035v19.369ZM34.832,32.508h49.71v-8.533h-5.35c-.635,0-1.151-.516-1.151-1.151s.516-1.151,1.151-1.151h5.35v-8.533h-49.71v8.533h5.35c.635,0,1.151.516,1.151,1.151s-.516,1.151-1.151,1.151h-5.35v8.533ZM4.491,32.508h15.035V13.139H4.491v19.369Z" style="fill: #000; stroke-width: 0px;"/>
  <path d="M12.009,23.975c-.635,0-1.151-.516-1.151-1.151s.516-1.151,1.151-1.151,1.151.516,1.151,1.151-.516,1.151-1.151,1.151Z" style="fill: #000; stroke-width: 0px;"/>
  <path d="M12.009,65.151c-.635,0-1.151-.516-1.151-1.151s.516-1.151,1.151-1.151,1.151.516,1.151,1.151-.516,1.151-1.151,1.151Z" style="fill: #000; stroke-width: 0px;"/>
  <path d="M12.009,106.328c-.635,0-1.151-.516-1.151-1.151s.516-1.152,1.151-1.152,1.151.517,1.151,1.152-.516,1.151-1.151,1.151Z" style="fill: #000; stroke-width: 0px;"/>
  <circle cx="107.365" cy="22.823" r="1.151" style="fill: #000; stroke-width: 0px;"/>
  <path d="M92.195,127.999c-.581,0-1.154-.155-1.656-.447-5.344-3.108-32.003-20.258-32.003-52.717,0-9.211,3.839-18.123,10.531-24.452,6.276-5.936,14.49-9.205,23.127-9.205.622,0,1.252.017,1.874.052,8.691.492,16.965,4.532,22.698,11.084,6.383,7.234,9.57,16.517,8.976,26.142-1.894,30.193-26.897,46.194-31.89,49.094-.503.293-1.075.447-1.657.447ZM92.179,43.479c-17.281.009-31.341,14.075-31.341,31.357,0,31.237,25.707,47.734,30.86,50.724l.511.297.51-.298c4.811-2.807,28.905-18.279,30.723-47.257.558-9.002-2.419-17.685-8.381-24.451-5.329-6.099-13.027-9.863-21.117-10.325-.589-.031-1.182-.047-1.765-.047h0Z" style="fill: #000; stroke-width: 0px;"/>
  <path d="M92.195,97.659c-12.585,0-22.823-10.238-22.823-22.823s10.239-22.823,22.823-22.823c12.569.015,22.809,10.254,22.823,22.825,0,12.584-10.238,22.822-22.823,22.822ZM92.195,54.315c-11.315,0-20.521,9.206-20.521,20.521s9.206,20.521,20.521,20.521c11.303-.012,20.508-9.218,20.521-20.519,0-11.316-9.206-20.522-20.521-20.522Z" style="fill: #000; stroke-width: 0px;"/>
  <path d="M92.195,112.834c-.228,0-.449-.067-.639-.193l-6.502-4.335c-.528-.352-.671-1.069-.319-1.597.214-.321.573-.512.96-.512.227,0,.447.067.637.194l5.863,3.908,4.501-3.004,1.361-.904c.19-.126.411-.193.639-.193.176,0,.352.041.51.119.368.182.613.549.639.958.027.409-.169.805-.51,1.032l-6.501,4.335c-.19.127-.411.194-.639.194Z" style="fill: #000; stroke-width: 0px;"/>
</svg>