<?xml version="1.0" encoding="UTF-8"?>
<svg id="Layer_1" data-name="Layer 1" xmlns="http://www.w3.org/2000/svg" version="1.1" viewBox="0 0 128 128">
  <path d="M20.995,27.513c-.305,0-.592-.119-.808-.335-.216-.216-.335-.503-.335-.808.006-5.365,4.378-9.737,9.745-9.743.629,0,1.141.512,1.141,1.142s-.512,1.142-1.142,1.142c-4.113,0-7.459,3.346-7.459,7.459,0,.63-.512,1.142-1.142,1.142Z" style="fill: #000; stroke-width: 0px;"/>
  <path d="M91.954,119.974c-1.816,0-3.293-1.477-3.293-3.293v-37.562h-49.322v37.562c0,1.816-1.477,3.293-3.293,3.293h-12.902c-1.816,0-3.293-1.477-3.293-3.293v-37.562H3.793c-1.816,0-3.293-1.477-3.293-3.293v-17.202c0-1.816,1.477-3.293,3.293-3.293h16.06v-13.417l-.443-.3c-1.268-.857-2.426-1.871-3.444-3.013l-.301-.338H3.793c-1.816,0-3.293-1.477-3.293-3.293v-17.202c0-1.816,1.477-3.293,3.293-3.293h11.872l.301-.338c3.46-3.885,8.428-6.113,13.63-6.113s10.171,2.228,13.63,6.113l.301.338h40.946l.301-.338c3.46-3.885,8.428-6.113,13.63-6.113s10.17,2.228,13.631,6.113l.301.338h11.872c1.816,0,3.293,1.477,3.293,3.293v17.202c0,1.816-1.477,3.293-3.293,3.293h-11.872l-.301.337c-1.018,1.143-2.176,2.156-3.444,3.014l-.443.3v13.417h16.06c1.816,0,3.293,1.477,3.293,3.293v17.202c0,1.816-1.477,3.293-3.293,3.293h-16.06v37.562c0,1.816-1.477,3.293-3.293,3.293h-12.902ZM90.946,117.689h14.918v-38.57h-6.317v7.459c0,.63-.512,1.143-1.142,1.143s-1.142-.513-1.142-1.143v-7.459h-6.316v38.57ZM22.137,117.689h14.918v-38.57h-6.316v7.459c0,.63-.512,1.143-1.142,1.143s-1.142-.513-1.142-1.143v-7.459h-6.316v38.57ZM103.312,76.834h21.904v-19.218h-2.686l-19.218,19.218ZM79.659,76.834h20.423l19.218-19.218h-20.423l-19.218,19.218ZM56.006,76.834h20.423l19.218-19.218h-20.423l-19.218,19.218ZM32.353,76.834h20.423l19.218-19.218h-20.423l-19.218,19.218ZM8.7,76.834h20.423l19.218-19.218h-20.423l-19.218,19.218ZM2.785,76.834h2.685l19.218-19.218H2.785v19.218ZM90.946,55.332h14.918v-12.173l-1.35.487c-1.965.709-4.02,1.069-6.108,1.069s-4.144-.36-6.109-1.069l-1.35-.487v12.173ZM43.226,38.602c-1.018,1.143-2.177,2.157-3.444,3.014l-.443.3v13.417h49.322v-13.417l-.443-.3c-1.268-.857-2.426-1.871-3.443-3.013l-.301-.338h-40.946l-.301.337ZM22.137,55.332h14.918v-12.173l-1.35.487c-1.965.709-4.02,1.069-6.109,1.069s-4.144-.36-6.109-1.069l-1.35-.487v12.173ZM98.403,10.31c-8.845.01-16.049,7.214-16.059,16.059,0,8.857,7.204,16.061,16.06,16.061s16.06-7.204,16.06-16.06-7.204-16.06-16.06-16.06h-.001ZM29.595,10.31c-8.845.01-16.049,7.214-16.059,16.059,0,8.856,7.204,16.061,16.06,16.061s16.06-7.204,16.06-16.06-7.204-16.06-16.06-16.06h-.001ZM114.813,18.222c2.567,5.102,2.567,11.194,0,16.296l-.735,1.461h11.137v-19.218h-11.137l.735,1.461ZM46.005,18.222c2.567,5.102,2.567,11.194,0,16.296l-.735,1.461h37.46l-.735-1.461c-2.567-5.102-2.567-11.194,0-16.296l.735-1.461h-37.46l.735,1.461ZM2.785,35.979h11.137l-.735-1.461c-2.567-5.102-2.567-11.194,0-16.296l.735-1.461H2.785v19.218Z" style="fill: #000; stroke-width: 0px;"/>
  <path d="M89.803,27.513c-.305,0-.592-.119-.808-.335-.216-.216-.335-.503-.335-.808.006-5.365,4.378-9.737,9.745-9.743.629,0,1.141.512,1.141,1.142s-.512,1.142-1.142,1.142c-4.113,0-7.459,3.346-7.459,7.459,0,.63-.512,1.142-1.142,1.142Z" style="fill: #000; stroke-width: 0px;"/>
</svg>