<?xml version="1.0" encoding="UTF-8"?>
<svg id="Layer_1" data-name="Layer 1" xmlns="http://www.w3.org/2000/svg" version="1.1" viewBox="0 0 128 128">
  <path d="M44.495,128.044c-9.05,0-17.774-2.713-25.228-7.845s-13.101-12.314-16.33-20.768c-3.229-8.454-3.808-17.572-1.673-26.367,2.135-8.795,6.828-16.633,13.574-22.666l.344-.308v-21.853H3.31C1.489,28.237.008,26.755.008,24.935v-8.671c0-1.821,1.481-3.302,3.302-3.302h109.414V3.258c0-1.821,1.481-3.302,3.302-3.302h8.671c1.821,0,3.302,1.481,3.302,3.302v121.387c0,1.821-1.481,3.302-3.302,3.302h-8.671c-1.821,0-3.302-1.481-3.302-3.302v-56.358c-.034-21.211-16.648-38.753-37.825-39.938l-1.091-.061v21.802l.344.308c6.746,6.033,11.44,13.871,13.574,22.666,2.135,8.795,1.556,17.913-1.673,26.367-3.229,8.455-8.876,15.636-16.331,20.768-7.454,5.132-16.178,7.845-25.228,7.845ZM114.994,125.678h10.737V2.225h-10.737v123.453ZM44.495,41.242c-23.279,0-42.218,18.939-42.218,42.218s18.939,42.218,42.218,42.218,42.218-18.939,42.218-42.218c-.026-23.254-18.964-42.192-42.217-42.218h-.001ZM90.996,30.2c8.59,4.156,15.61,11.176,19.766,19.766l1.963,4.057v-25.786h-25.786l4.057,1.963ZM62.971,43.049l.591.28c2.21,1.046,4.348,2.284,6.356,3.678l1.622,1.127v-19.896h-8.569v14.812ZM17.451,48.133l1.622-1.127c2.008-1.395,4.146-2.632,6.356-3.678l.591-.28v-14.812h-8.569v19.896ZM28.289,42.064l1.382-.496c4.77-1.711,9.757-2.584,14.825-2.595,5.067.011,10.055.884,14.825,2.595l1.382.496v-13.827H28.289v13.827ZM2.277,25.967h110.447v-10.737H2.277v10.737Z" style="fill: #000; stroke-width: 0px;"/>
  <path d="M15.824,104.078c-.378,0-.731-.186-.943-.498-9.641-14.193-7.831-33.3,4.302-45.431,6.762-6.761,15.755-10.484,25.324-10.484,7.19,0,14.138,2.137,20.094,6.18.493.364.609,1.043.263,1.551-.212.31-.563.496-.939.496-.213,0-.421-.06-.602-.174-5.574-3.777-12.074-5.773-18.799-5.773-8.963,0-17.388,3.488-23.722,9.822-11.355,11.355-13.054,29.243-4.041,42.533.172.252.234.555.177.853-.057.298-.226.557-.478.728-.19.129-.41.197-.638.197h0Z" style="fill: #000; stroke-width: 0px;"/>
  <path d="M44.484,119.255c-7.191,0-14.139-2.137-20.094-6.18-.493-.364-.609-1.043-.263-1.551.212-.31.563-.496.939-.496.213,0,.421.06.602.174,5.577,3.784,12.083,5.784,18.813,5.784h.003c8.963,0,17.386-3.488,23.719-9.819,11.362-11.36,13.059-29.253,4.035-42.546-.353-.518-.219-1.225.297-1.577.189-.128.409-.197.636-.197.377,0,.728.185.939.496,9.64,14.192,7.831,33.298-4.303,45.43-6.762,6.761-15.754,10.484-25.321,10.484h-.003Z" style="fill: #000; stroke-width: 0px;"/>
  <path d="M44.482,91.101c-.213,0-.429-.009-.642-.027-3.719-.311-6.645-3.237-6.957-6.957-.312-3.719,2.086-7.092,5.702-8.018l.777-.199v-18.45c0-.626.509-1.135,1.135-1.135s1.135.509,1.135,1.135v18.446l.772.202c2.668.698,4.759,2.789,5.457,5.457l.202.772h9.776c.626,0,1.135.509,1.135,1.135s-.509,1.134-1.135,1.134h-9.78l-.199.777c-.864,3.373-3.897,5.729-7.376,5.729ZM44.495,78.092c-2.96,0-5.368,2.408-5.368,5.368s2.408,5.368,5.368,5.368,5.368-2.408,5.368-5.368-2.408-5.368-5.368-5.368Z" style="fill: #000; stroke-width: 0px;"/>
</svg>