<?xml version="1.0" encoding="utf-8"?>
<!-- Generator: Adobe Illustrator 16.0.3, SVG Export Plug-In . SVG Version: 6.00 Build 0)  -->
<!DOCTYPE svg PUBLIC "-//W3C//DTD SVG 1.1//EN" "http://www.w3.org/Graphics/SVG/1.1/DTD/svg11.dtd">
<svg version="1.1" id="Layer_1" xmlns="http://www.w3.org/2000/svg" xmlns:xlink="http://www.w3.org/1999/xlink" x="0px" y="0px"
	 width="124px" height="124px" viewBox="0 0 124 124" style="enable-background:new 0 0 124 124;" xml:space="preserve">
<path style="fill:#F2F2F2;" d="M97.561,33.035c10.029,0,19.233,1.66,26.439,4.427v77.648c-5.412-2.646-12.929-5.477-24.87-5.477
	c-18.834,0-35.452,8.619-57.307,8.619C17.578,118.253,0,108.033,0,93.899V25.411C0,14.551,18.725,5.746,41.823,5.746
	s41.823,8.805,41.823,19.665v8.72C87.787,33.501,92.51,33.035,97.561,33.035z M99.177,37.051c-21.512,0-33.745,8.025-57.354,8.025
	c-16.567,0-31.067-3.969-37.838-10.539L3.944,93.969c0,11.448,17.911,20.312,37.022,20.312c18.158,0,37.809-8.177,58.777-8.709
	c6.988-0.178,13.698,1.484,19.698,3.262V40.385C113.117,38.578,107.117,37.051,99.177,37.051z M79.004,25.402
	c0-8.804-16.647-15.942-37.181-15.942c-20.535,0-37.34,7.138-37.34,15.942s16.805,15.942,37.34,15.942
	c14.81,0,25.175-3.889,37.181-6.347V25.402z M41.823,19.339c-7.685,0-13.916,2.714-13.916,6.063s6.23,6.063,13.916,6.063
	c7.686,0,13.915-2.714,13.915-6.063S49.508,19.339,41.823,19.339z"/>
</svg>
