<?xml version="1.0" encoding="UTF-8"?>
<svg id="Layer_1" data-name="Layer 1" xmlns="http://www.w3.org/2000/svg" version="1.1" viewBox="0 0 50 50">
  <path d="M36.513,15.013h-20.202l4.976-4.624c.372-.346.393-.928.047-1.3-.346-.371-.927-.392-1.299-.047l-6.075,5.648c-.72.67-.72,1.81,0,2.48l6.075,5.649c.372.346.953.325,1.299-.047h0c.346-.372.325-.954-.047-1.3l-4.972-4.622h20.199c.507,0,.919-.411.919-.919s-.411-.919-.919-.919Z" style="fill: #505056; stroke-width: 0px;"/>
  <path d="M30.023,26.776c-.372-.346-.953-.325-1.299.047h0c-.346.372-.325.954.047,1.3l4.972,4.622H13.545c-.507,0-.919.411-.919.919s.411.919.919.919h20.202l-4.976,4.624c-.372.346-.393.928-.047,1.3.346.371.927.392,1.299.047l6.075-5.648c.72-.67.72-1.81,0-2.48l-6.075-5.649Z" style="fill: #505056; stroke-width: 0px;"/>
  <path d="M33.283,46.463c-2.57.993-5.363,1.537-8.283,1.537-12.703,0-23-10.297-23-23,0-4.398,1.234-8.507,3.375-12" style="fill: none; stroke: #505056; stroke-linecap: round; stroke-miterlimit: 10; stroke-width: 2px;"/>
  <path d="M8.736,8.736c4.162-4.162,9.912-6.736,16.264-6.736,12.702,0,23,10.297,23,23,0,8.305-4.402,15.582-11,19.625" style="fill: none; stroke: #505056; stroke-linecap: round; stroke-miterlimit: 10; stroke-width: 2px;"/>
</svg>