<?xml version="1.0" encoding="UTF-8"?>
<svg id="Layer_1" data-name="Layer 1" xmlns="http://www.w3.org/2000/svg" version="1.1" viewBox="0 0 128 128">
  <path d="M2.937,128.226c-.883,0-1.711-.392-2.271-1.076-.56-.683-.782-1.572-.608-2.438.98-4.829,4.744-8.54,9.589-9.452l.831-.156V12.816l-.255-.289c-2.731-3.096-2.536-7.76.444-10.618C12.102.532,13.989-.226,15.98-.226s3.877.759,5.313,2.136c2.979,2.858,3.174,7.521.444,10.618l-.255.289v6.582h44.496c1.835,0,3.329,1.493,3.329,3.329v4.348c0,1.835-1.493,3.329-3.329,3.329h-18.41v6.423l.873.126c7.334,1.059,12.664,7.678,12.133,15.069-.531,7.391-6.751,13.181-14.161,13.181s-13.631-5.79-14.161-13.181c-.531-7.391,4.799-14.01,12.133-15.069l.873-.126v-6.423h-23.776v84.7l.831.156c4.835.91,8.593,4.607,9.583,9.424.011.084.018.169.022.254l.039.979h8.955v-10.733h-3.193c-1.835,0-3.329-1.493-3.329-3.329v-10.869c0-1.835,1.493-3.329,3.329-3.329h3.193v-24.931c0-.637.518-1.155,1.155-1.155s1.155.518,1.155,1.155v3.193h75.948v-3.193c0-.637.518-1.155,1.155-1.155s1.155.518,1.155,1.155v24.931h3.193c1.835,0,3.329,1.493,3.329,3.329v10.869c0,1.835-1.493,3.329-3.329,3.329h-3.193v10.733h5.367c.637,0,1.155.518,1.155,1.155s-.518,1.155-1.155,1.155H2.937ZM43.22,125.917h75.948v-10.733H43.22v10.733ZM11.847,117.357c-4.421.01-8.289,3.005-9.405,7.283l-.333,1.276h27.739l-.333-1.276c-1.116-4.277-4.982-7.272-9.403-7.283h-8.265ZM12.787,115.047h6.386V14.558l-1.29.356c-.62.171-1.26.263-1.902.272-.643-.009-1.283-.101-1.902-.272l-1.29-.356v100.489ZM36.699,112.874h88.991v-12.907H36.699v12.907ZM43.22,97.657h75.948v-8.559H43.22v8.559ZM43.22,86.787h75.948v-8.559H43.22v8.559ZM46.413,39.099c-6.555,0-11.888,5.333-11.888,11.888s5.333,11.888,11.888,11.888,11.888-5.333,11.888-11.888c-.008-6.548-5.34-11.88-11.887-11.888h-.001ZM21.482,28.094h45.515v-6.386H21.482v6.386ZM15.98,2.144c-2.959,0-5.367,2.407-5.367,5.367s2.407,5.367,5.367,5.367,5.367-2.408,5.367-5.367-2.408-5.367-5.367-5.367Z" style="fill: #000; stroke-width: 0px;"/>
  <path d="M46.413,52.142c-.637,0-1.155-.518-1.155-1.155v-6.521c0-.637.518-1.155,1.155-1.155s1.155.518,1.155,1.155v5.367h5.367c.637,0,1.155.518,1.155,1.155s-.518,1.155-1.155,1.155h-6.522Z" style="fill: #000; stroke-width: 0px;"/>
</svg>