<?xml version="1.0" encoding="UTF-8"?>
<svg id="Layer_1" data-name="Layer 1" xmlns="http://www.w3.org/2000/svg" version="1.1" viewBox="0 0 128 128">
  <path d="M40.162,67.318c-7.796-.009-14.147-6.359-14.156-14.155,0-7.804,6.35-14.153,14.155-14.153s14.155,6.35,14.155,14.155-6.349,14.154-14.153,14.154h0ZM40.16,41.312c-6.527.008-11.843,5.324-11.851,11.851,0,6.536,5.317,11.853,11.852,11.853s11.852-5.317,11.852-11.852-5.317-11.852-11.852-11.852h-.001Z" style="fill: #000; stroke-width: 0px;"/>
  <path d="M40.161,54.315c-.635,0-1.151-.516-1.151-1.151v-4.334c0-.635.516-1.151,1.151-1.151s1.151.516,1.151,1.151v3.183h3.183c.635,0,1.151.516,1.151,1.151s-.516,1.151-1.151,1.151h-4.334Z" style="fill: #000; stroke-width: 0px;"/>
  <path d="M3.319,128C1.489,128,0,126.511,0,124.682v-8.669c0-1.83,1.489-3.318,3.319-3.318h3.183V32.643h-1.839c-1.171,0-2.225-.587-2.834-1.57-.603-.972-.659-2.211-.147-3.234L10.35,10.491c.563-1.124,1.695-1.822,2.953-1.822h4.035s0-5.35,0-5.35c0-1.83,1.489-3.319,3.319-3.319h6.501c1.83,0,3.319,1.489,3.319,3.319v5.35h19.369V3.319c0-1.83,1.489-3.319,3.319-3.319h6.501c1.83,0,3.319,1.489,3.319,3.319v5.35h4.035c1.258,0,2.389.699,2.953,1.823l8.668,17.337c.517,1.027.463,2.268-.14,3.243-.609.984-1.664,1.572-2.821,1.572h-1.859v8.533h45.079c1.116,0,2.148.553,2.765,1.478l5.778,8.669c.68,1.02.743,2.325.164,3.406-.579,1.081-1.699,1.752-2.925,1.752h-11.852v8.533h1.016c3.025,0,5.486,2.461,5.486,5.486v2.167c0,3.025-2.461,5.486-5.486,5.486h-28.174c-3.025,0-5.486-2.461-5.486-5.486v-2.167c0-3.025,2.461-5.486,5.486-5.486h1.016v-8.533h-12.868v56.212h50.861c1.83,0,3.318,1.489,3.318,3.318v8.669c0,1.83-1.489,3.318-3.318,3.318H3.319ZM2.303,125.697h123.395v-10.701H2.303v10.701ZM50.997,73.685c3.025,0,5.486,2.461,5.486,5.486v33.524h15.035V32.643H8.804v80.051h15.035v-33.524c0-3.025,2.461-5.486,5.486-5.486h21.672ZM41.312,112.694h12.868v-33.524c0-1.755-1.428-3.183-3.183-3.183h-9.685v17.202h5.35c.635,0,1.151.516,1.151,1.151s-.516,1.151-1.151,1.151h-5.35v17.202ZM29.325,75.987c-1.755,0-3.183,1.428-3.183,3.183v33.524h12.868v-17.202h-5.35c-.635,0-1.151-.516-1.151-1.151s.516-1.151,1.151-1.151h5.35v-17.202h-9.685ZM85.672,67.318c-1.755,0-3.183,1.428-3.183,3.183v2.167c0,1.755,1.428,3.183,3.183,3.183h28.174c1.755,0,3.183-1.428,3.183-3.183v-2.167c0-1.755-1.428-3.183-3.183-3.183h-28.174ZM88.991,65.016h21.536v-8.533h-21.536v8.533ZM73.82,54.18h52.76l-7.138-10.701h-45.623v10.701ZM3.004,30.341h74.298l-9.67-19.369h-4.648v7.517c0,1.83-1.489,3.319-3.319,3.319h-6.501c-1.83,0-3.319-1.489-3.319-3.319v-7.517h-19.369v7.517c0,1.83-1.489,3.319-3.319,3.319h-6.501c-1.83,0-3.319-1.489-3.319-3.319v-7.517h-4.634L3.004,30.341ZM52.148,19.505h8.533V2.303h-8.533v17.202ZM19.64,19.505h8.533V2.303h-8.533v17.202Z" style="fill: #000; stroke-width: 0px;"/>
</svg>