<svg xmlns="http://www.w3.org/2000/svg" viewBox="0 0 512 512" width="512" height="512">
<path fill="#3478C1" d="M120,3.75c64.219,0,116.25,52.031,116.25,116.25S184.219,236.25,120,236.25S3.75,184.219,3.75,120
	S55.781,3.75,120,3.75z"/>
<path fill="#FFFFFF" d="M199.76,88.314h-74.045V46.657c0-6.83-8.296-10.276-13.086-5.426L39.67,114.573c-3,3.002-3,7.79,0,10.789
	l72.959,73.407c4.85,4.851,13.086,1.404,13.086-5.426v-41.655h74.045c4.214,0,7.66-3.448,7.66-7.66V95.976
	C207.42,91.762,203.974,88.314,199.76,88.314z"/>
</svg>
