<?xml version="1.0" encoding="UTF-8"?>
<svg id="Layer_1" data-name="Layer 1" xmlns="http://www.w3.org/2000/svg" version="1.1" viewBox="0 0 128 128">
  <path d="M92.174,128c-1.83,0-3.319-1.489-3.319-3.318v-20.521h-3.183c-3.025,0-5.486-2.461-5.486-5.486v-2.167c0-3.025,2.461-5.486,5.486-5.486h3.183v-12.868H5.486c-3.025,0-5.486-2.461-5.486-5.486v-17.338c0-3.025,2.461-5.486,5.486-5.486h32.136L88.158,13.459l-1.95-.602c-2.298-.71-3.847-2.802-3.855-5.207v-2.164C82.353,2.461,84.814,0,87.839,0h23.839C114.703,0,117.164,2.461,117.164,5.486v2.167c0,3.025-2.461,5.486-5.486,5.486h-3.183v18.413l.418.358c.033.028.067.055.097.085,2.441,2.432,3.833,5.802,3.819,9.246.024,3.422,2.079,6.46,5.237,7.751,5.996,2.34,9.887,7.993,9.934,14.411-.123,3.973-1.761,7.684-4.613,10.452-2.856,2.773-6.621,4.299-10.602,4.299h-4.289v12.868h3.183c3.025,0,5.486,2.461,5.486,5.486v2.167c0,3.025-2.461,5.486-5.486,5.486h-3.183v20.521c0,1.83-1.489,3.318-3.318,3.318h-13.003ZM91.158,125.697h15.035v-21.536h-15.035v21.536ZM85.672,93.325c-1.755,0-3.183,1.428-3.183,3.183v2.167c0,1.755,1.428,3.183,3.183,3.183h26.006c1.755,0,3.183-1.428,3.183-3.183v-2.167c0-1.755-1.428-3.183-3.183-3.183h-26.006ZM91.158,91.022h15.035v-12.868h-15.035v12.868ZM92.479,33.549c-2.198,2.147-3.469,5.139-3.488,8.211v.938c-.076,3.284-1.718,6.422-4.393,8.37l-.022.016c-1.309,1.008-2.089,2.596-2.087,4.248v20.519h30.273c7.057,0,12.727-5.506,12.935-12.535v-.048c-.097-5.454-3.452-10.228-8.549-12.168-4.007-1.655-6.606-5.524-6.621-9.86.002-5.89-4.613-10.62-10.505-10.765-.089-.002-.179-.003-.27-.003-2.725,0-5.375,1.121-7.273,3.076ZM28.309,75.852h51.877v-20.521c.005-.638.093-1.282.258-1.906l.34-1.277H28.309v23.704ZM15.306,75.852h10.701v-23.704h-10.701v23.704ZM5.486,52.148c-1.755,0-3.183,1.428-3.183,3.183v17.338c0,1.755,1.428,3.183,3.183,3.183h7.517v-23.704h-7.517ZM41.562,49.845h40.985l.287-.25c.085-.074.162-.154.238-.234.029-.03.067-.071.086-.088,2.104-1.507,3.422-3.946,3.528-6.533v-.973c.023-3.659,1.457-7.11,4.04-9.71l.295-.297V14.234l-49.46,35.611ZM93.325,29.909l1.437-.654c1.582-.72,3.265-1.085,5.003-1.085.099,0,.199.001.298.004,1.631.035,3.219.373,4.72,1.005l1.41.593V13.139h-12.868v16.77ZM87.839,2.303c-1.755,0-3.183,1.428-3.183,3.183v2.167c0,1.755,1.428,3.183,3.183,3.183h23.839c1.755,0,3.183-1.428,3.183-3.183v-2.167c0-1.755-1.428-3.183-3.183-3.183h-23.839Z" style="fill: #000; stroke-width: 0px;"/>
  <path d="M110.595,69.486c-3.623,0-6.569-2.947-6.569-6.569s2.947-6.569,6.569-6.569,6.569,2.947,6.569,6.569-2.947,6.569-6.569,6.569ZM110.595,58.65c-2.353,0-4.267,1.914-4.267,4.267s1.914,4.267,4.267,4.267,4.267-1.914,4.267-4.267-1.914-4.267-4.267-4.267Z" style="fill: #000; stroke-width: 0px;"/>
  <path d="M66.167,65.151c-.635,0-1.151-.516-1.151-1.151s.516-1.151,1.151-1.151,1.151.516,1.151,1.151-.516,1.151-1.151,1.151Z" style="fill: #000; stroke-width: 0px;"/>
  <path d="M72.669,60.817c-.635,0-1.151-.516-1.151-1.151s.517-1.151,1.151-1.151,1.151.516,1.151,1.151-.516,1.151-1.151,1.151Z" style="fill: #000; stroke-width: 0px;"/>
  <path d="M72.669,69.486c-.635,0-1.151-.516-1.151-1.151s.517-1.151,1.151-1.151,1.151.516,1.151,1.151-.516,1.151-1.151,1.151Z" style="fill: #000; stroke-width: 0px;"/>
  <path d="M96.508,41.312c-.635,0-1.151-.516-1.151-1.151s.516-1.151,1.151-1.151h6.501c.635,0,1.152.516,1.152,1.151s-.517,1.151-1.152,1.151h-6.501Z" style="fill: #000; stroke-width: 0px;"/>
</svg>