<?xml version="1.0" encoding="UTF-8"?>
<svg id="Layer_1" data-name="Layer 1" xmlns="http://www.w3.org/2000/svg" version="1.1" viewBox="0 0 50 50">
  <g>
    <path d="M33.283,46.463c-2.57.993-5.363,1.537-8.283,1.537-12.703,0-23-10.298-23-23,0-4.397,1.234-8.507,3.375-12" style="fill: none; stroke: #505056; stroke-linecap: round; stroke-miterlimit: 10; stroke-width: 2px;"/>
    <path d="M8.736,8.736c4.162-4.162,9.912-6.736,16.264-6.736,12.702,0,23,10.298,23,23,0,8.305-4.402,15.582-11,19.625" style="fill: none; stroke: #505056; stroke-linecap: round; stroke-miterlimit: 10; stroke-width: 2px;"/>
  </g>
  <path d="M16.515,16.5c-2.172,2.226-3.515,5.301-3.515,8.699,0,6.794,5.373,12.301,12,12.301s12-5.508,12-12.301c0-3.396-1.343-6.471-3.513-8.697" style="fill: none; stroke: #505056; stroke-miterlimit: 10; stroke-width: 3px;"/>
  <line x1="25" y1="12" x2="25" y2="22" style="fill: none; stroke: #505056; stroke-linecap: round; stroke-miterlimit: 10; stroke-width: 3px;"/>
</svg>