<?xml version="1.0" encoding="UTF-8"?>
<svg id="Layer_1" data-name="Layer 1" xmlns="http://www.w3.org/2000/svg" version="1.1" viewBox="0 0 50 50">
  <defs>
    <style>
      .cls-1 {
        fill: #505056;
        stroke-width: 0px;
      }
    </style>
  </defs>
  <path class="cls-1" d="M36.3,38.4c-.5.1-2.5-2.4-2.8-2.6l-2.3,2.4c-.3.3-.8.3-1,0-.3-.3-.3-.8,0-1.1l2.3-2.4-2.3-2.4c-.3-.3-.3-.8,0-1.1.3-.3.8-.3,1,0,0,0,2.3,2.4,2.3,2.4l2.3-2.4c.3-.3.8-.3,1,0,.3.3.3.8,0,1.1,0,0-2.3,2.4-2.3,2.4l2.3,2.4c.5.5.1,1.3-.5,1.3ZM39.2,40.7c4-4,2.8-11.4-2.4-13.8,0,0,0-10.4,0-10.4,0-2.6-2.8-4.3-4.9-2.8v-1.3c0-2.6-2.9-4.3-5-2.8-.7-3.5-5.6-3.5-6.3,0-2.1-1.5-5.1.2-5,2.8,0,0,0,3.6,0,3.6,0,1,1.5,1,1.5,0,0,0,0-3.6,0-3.6,0-2.4,3.4-2.4,3.5,0,0,0,0,8.3,0,8.3,0,1,1.5,1,1.5,0,0,0,0-10.4,0-10.4,0-2.4,3.4-2.4,3.5,0,0,0,0,10.9,0,10.9,0,.4.3.8.7.8s.7-.3.7-.8v-8.8c0-2.4,3.5-2.4,3.5,0,0,0,0,8.8,0,8.8,0,1,1.5,1,1.5,0,0,0,0-4.6,0-4.6,0-2.4,3.5-2.4,3.5,0,0,0,0,9.8,0,9.8-5.6-1.5-10.9,4.1-9.9,9.6h-5.7c-2.2,0-2.6-.4-4.1-2.2-.1-.1-.3-.3-.4-.5l-5.8-6.8c-.7-.8-.6-1.9,0-2.6.7-.7,1.8-.6,2.5,0,0,0,3.7,4.1,3.7,4.1.4.5,1.3.1,1.3-.5,0,0,0-5.4,0-5.4,0-1-1.5-1-1.5,0,0,0,0,3.4,0,3.4l-2.5-2.7c-3.1-3.2-7.4,1.5-4.7,4.6,0,0,5.8,6.8,5.8,6.8,1.7,2,2.7,3.2,5.5,3.2,0,0,6,0,6,0,1.7,5.6,9.4,7.6,13.4,3.1ZM38.2,29.7c5.9,6.4-2.8,16.3-9.4,9.9-5.9-6.4,2.8-16.3,9.4-9.9ZM17.1,19c0-1-1.5-1-1.5,0,0,1,1.5,1,1.5,0ZM33.6,47.4c1.2-.5.5-2.3-.7-1.9C13.5,53.1-4.7,31.3,6.2,13.5c.7-1.1-1-2.2-1.7-1-11.9,19.3,7.9,43.2,29.1,34.9ZM37.5,45.5C58,33,49,1,25,1c-6.4,0-12.4,2.5-17,7-.4.4-.4,1,0,1.4s1,.4,1.4,0c4.2-4.2,9.7-6.4,15.6-6.4,22,0,30.3,29.3,11.5,40.8-1.1.6,0,2.4,1,1.7Z"/>
</svg>