<?xml version="1.0" encoding="UTF-8"?>
<svg id="Layer_1" data-name="Layer 1" xmlns="http://www.w3.org/2000/svg" version="1.1" viewBox="0 0 128 128">
  <path d="M16.322,128c-1.83,0-3.318-1.489-3.318-3.318,0-9.21,0-21.82,7.948-30.183,3.469-3.243,7.483-5.733,11.929-7.401l.036-.014c2.587-1.085,5.112-2.376,7.505-3.836l.038-.025,1.06-.715.046-.04c.021-.018.042-.035.064-.052,3.1-1.972,5.286-5.167,6-8.772l.099-.502-.344-.379c-7.037-7.749-10.782-17.78-10.544-28.246.007-1.953.129-3.906.363-5.825l.055-.455-.304-.343c-4.592-5.172-8.098-11.098-10.422-17.611-.451-1.288-.051-2.75.997-3.632C37.861,8.044,50.329,2.295,63.586.027c.137-.018.276-.027.415-.027s.278.009.415.028c13.253,2.27,25.717,8.019,36.045,16.628,1.045.879,1.445,2.341.992,3.634-2.322,6.508-5.828,12.434-10.42,17.606l-.305.344.057.456c.238,1.918.364,3.871.374,5.805.239,10.486-3.507,20.518-10.548,28.267l-.344.379.099.502c.715,3.608,2.906,6.804,6.012,8.773.019.014.038.029.056.045l.048.042,1.124.757.02.012c2.381,1.448,4.892,2.728,7.463,3.805l.035.014c4.446,1.669,8.458,4.159,11.925,7.401,7.947,8.362,7.948,20.973,7.948,30.183,0,1.83-1.489,3.318-3.318,3.318H16.322ZM86.823,100.842c.003.447-.242.845-.637,1.042l-7.433,3.703,5.672,7.568c.187.251.265.573.211.883-.054.311-.234.588-.497.763l-16.343,10.897h44.897v-1.016c0-11.023-.561-21.506-7.332-28.616l-.024-.025-.026-.024c-3.28-3.004-7.056-5.311-11.225-6.858-1.897-.856-3.858-1.741-5.757-2.79l-1.507-.832v15.305ZM33.925,89.158c-4.174,1.546-7.954,3.853-11.238,6.858l-.026.023-.024.025c-6.772,7.11-7.332,17.593-7.332,28.616v1.016h44.899l-16.349-10.894c-.262-.174-.442-.453-.496-.763-.053-.31.025-.633.214-.885l5.675-7.555-7.436-3.715c-.395-.197-.639-.595-.637-1.036v-15.318l-1.509.839c-1.888,1.049-3.871,1.954-5.742,2.79ZM43.479,100.131l8.032,4.015c.306.153.527.433.605.767.079.334.006.682-.199.955l-5.769,7.694,16.32,10.879-.508-2.43c-1.936-9.263-6.691-26.142-16.791-35.101l-1.69-1.499v14.72ZM82.831,86.91c-10.112,8.966-14.861,25.841-16.791,35.102l-.506,2.429,16.318-10.879-5.846-7.796c-.152-.255-.199-.558-.131-.851.079-.335.301-.615.609-.768l8.036-4.016v-14.719l-1.69,1.498ZM49.358,76.319c-.861,2.343-2.301,4.46-4.165,6.122l-.909.81.96.749c9.783,7.634,15.065,21.769,17.772,32.283l.984,3.82.984-3.82c2.707-10.514,7.988-24.649,17.77-32.283l.961-.75-.911-.81c-1.865-1.658-3.311-3.77-4.183-6.108l-.476-1.277-1.088.82c-3.741,2.821-8.382,4.4-13.067,4.446-4.674-.047-9.321-1.632-13.066-4.463l-1.093-.826-.473,1.287ZM39.203,42.741c-.028.572-.058,1.163-.058,1.754,0,18.485,11.15,33.524,24.855,33.524s24.855-15.039,24.855-33.524c0-.591-.029-1.182-.058-1.754l-.115-2.42-1.575,1.339c-6.314,5.368-14.355,8.324-22.642,8.324-.15,0-.301,0-.452-.003h-.026c-.151.002-.301.003-.452.003-8.287,0-16.328-2.956-22.642-8.324l-1.575-1.339-.115,2.42ZM38.844,36.508c6.417,7.099,15.586,11.17,25.155,11.17s18.738-4.071,25.155-11.17l1.534-1.697h-53.379l1.534,1.697ZM63.815,2.317c-12.8,2.203-24.834,7.769-34.801,16.096l-.546.456.241.669c1.607,4.453,3.806,8.671,6.536,12.54l.303.43h56.9l.304-.43c2.733-3.874,4.933-8.1,6.538-12.56l.241-.669-.546-.455c-9.977-8.323-22.02-13.882-34.827-16.076l-.172-.03-.172.03Z" style="fill: #000; stroke-width: 0px;"/>
  <path d="M57.498,21.006c-.635,0-1.151-.516-1.151-1.151s.516-1.151,1.151-1.151h13.003c.635,0,1.152.516,1.152,1.151s-.517,1.151-1.152,1.151h-13.003Z" style="fill: #000; stroke-width: 0px;"/>
</svg>