<?xml version="1.0" encoding="UTF-8"?>
<svg id="Layer_1" data-name="Layer 1" xmlns="http://www.w3.org/2000/svg" version="1.1" viewBox="0 0 128 128">
  <path d="M113.586,72.582c-.52,0-.977-.352-1.112-.854-.083-.303-.044-.615.11-.883.153-.268.402-.46.7-.541l1.869-.495-.529-1.838c-.153-.608.197-1.217.801-1.39.105-.03.212-.045.319-.045.503,0,.942.321,1.097.799l.847,2.97c.086.298.048.62-.103.888-.151.268-.407.467-.704.547l-2.991.803c-.096.026-.2.039-.303.039Z" style="fill: #000; stroke-width: 0px;"/>
  <path d="M12.265,15.099c-.51-.001-.965-.345-1.106-.835l-.851-2.98c-.085-.296-.047-.619.104-.886.151-.267.407-.467.704-.547l2.991-.803c.099-.027.2-.04.301-.04.202,0,.401.053.576.154.267.154.459.403.539.701.166.615-.198,1.249-.811,1.416l-1.866.495.531,1.856c.174.611-.181,1.251-.791,1.426-.103.029-.211.045-.32.045Z" style="fill: #000; stroke-width: 0px;"/>
  <path d="M24.89,128.137c-.163,0-.328-.002-.492-.006-4.904-.127-9.477-2.146-12.876-5.683-3.399-3.537-5.234-8.186-5.167-13.092.067-4.901,2.026-9.496,5.515-12.938,3.489-3.442,8.11-5.337,13.01-5.337h31.449v-32.122l-39.368,22.328c-.381.215-.796.354-1.231.413-.141.018-.289.028-.436.028h0c-.297,0-.593-.039-.879-.115l-11.96-3.199c-.852-.227-1.589-.796-2.023-1.562-.434-.766-.544-1.691-.302-2.537l3.387-11.917c.248-.853.813-1.569,1.59-2.01l34.539-19.586L5.124,21.198c-.401-.219-.733-.501-1.003-.847-.278-.353-.476-.747-.59-1.175L.124,7.289c-.241-.849-.129-1.779.308-2.548.436-.772,1.176-1.339,2.032-1.558L14.421-.031c.268-.066.565-.102.862-.102.149,0,.299.009.447.027.432.053.846.188,1.227.4l39.371,22.344V3.191c0-1.834,1.492-3.326,3.326-3.326h8.687c1.834,0,3.326,1.492,3.326,3.326v19.444L111.035.306c.384-.218.801-.357,1.239-.412.152-.02.299-.03.444-.03.286,0,.57.038.846.112l11.983,3.21c.853.227,1.59.796,2.024,1.562.434.766.544,1.691.301,2.538l-3.393,11.914c-.249.847-.814,1.56-1.59,1.999l-34.557,19.605,34.556,19.587c.781.434,1.356,1.17,1.586,2.024l3.377,11.885c.243.851.133,1.78-.302,2.55-.434.772-1.175,1.339-2.031,1.559l-11.956,3.211c-.283.077-.571.115-.861.115-.582-.002-1.161-.155-1.67-.443l-39.365-22.339v32.129h31.423c4.91,0,9.528,1.895,13.015,5.335,3.487,3.441,5.444,8.033,5.51,12.931.066,4.9-1.768,9.545-5.164,13.078-3.396,3.534-7.964,5.55-12.863,5.679-.166.005-.331.007-.496.007-9.978,0-18.1-7.815-18.491-17.791l-.008-.214-.094-.192c-2.214-4.54-6.723-7.499-11.768-7.725l-1.063-.047v22.67c0,1.834-1.492,3.325-3.326,3.325h-8.687c-1.834,0-3.326-1.492-3.326-3.325v-22.67l-1.063.047c-5.045.225-9.554,3.185-11.768,7.725l-.094.193-.008.214c-.384,9.99-8.513,17.816-18.505,17.816ZM103.09,93.388c-8.944,0-16.221,7.277-16.221,16.221s7.277,16.221,16.221,16.221,16.221-7.277,16.221-16.221c-.011-8.933-7.287-16.209-16.219-16.221h-.001ZM58.636,57.649v68.18h10.723V57.642l-5.362-3.038-5.361,3.045ZM24.909,93.387c-4.334,0-8.409,1.687-11.473,4.751-4.656,4.656-6.036,11.594-3.516,17.677,2.519,6.083,8.402,10.013,14.986,10.013,8.933-.012,16.209-7.287,16.221-16.219,0-6.585-3.93-12.468-10.013-14.987-1.979-.82-4.066-1.235-6.204-1.235ZM71.667,99.82l.974.043c4.16.182,8.071,1.903,11.015,4.848l1.203,1.203.492-1.628c1.084-3.59,3.2-6.732,6.119-9.086l2.245-1.81h-22.047v6.432ZM36.526,95.198c2.919,2.354,5.035,5.496,6.119,9.086l.492,1.628,1.203-1.203c2.944-2.944,6.856-4.666,11.015-4.848l.974-.043v-6.432h-22.047l2.245,1.81ZM5.883,62.602l-3.814,13.338,13.349,3.553L121.517,19.32h.5l.223-.739,3.683-12.928-13.348-3.553L5.883,62.602ZM66.345,53.276l46.189,26.215,13.408-3.581-3.813-13.271-36.129-20.507-19.655,11.145ZM2.053,5.68l3.813,13.271,36.107,20.523,19.679-11.161L15.461,2.1,2.053,5.68ZM58.636,23.949l5.362,3.04,5.361-3.045V2.173h-10.723v21.776Z" style="fill: #000; stroke-width: 0px;"/>
  <path d="M14.403,72.571c-.105,0-.208-.013-.306-.039l-2.991-.801c-.294-.079-.55-.279-.701-.546-.151-.267-.189-.59-.104-.885l.844-2.958c.16-.468.596-.781,1.091-.781.107,0,.215.015.319.045.595.171.946.772.804,1.373l-.526,1.835,1.873.496c.295.079.544.27.698.537.154.267.195.578.115.876-.135.498-.593.848-1.113.848h-.003Z" style="fill: #000; stroke-width: 0px;"/>
  <path d="M115.744,15.104c-.107,0-.214-.015-.318-.045-.296-.085-.542-.28-.692-.549-.15-.27-.186-.581-.101-.878l.099-.345h2.4l-.279.979c-.141.493-.597.838-1.109.838ZM115.156,11.812l.009-.031-1.624-.43-.214-.061c-.602-.171-.96-.803-.799-1.407.135-.504.592-.856,1.113-.856.094,0,.188.012.281.035l2.976.795c.293.079.549.278.699.545.151.267.189.589.105.884l-.331,1.161-2.216-.633Z" style="fill: #000; stroke-width: 0px;"/>
  <path d="M24.905,119.449c-5.426,0-9.841-4.415-9.841-9.841,0-.636.518-1.154,1.154-1.154s1.154.517,1.154,1.154c0,4.154,3.379,7.533,7.533,7.533s7.533-3.379,7.533-7.533-3.379-7.534-7.533-7.534c-.636,0-1.154-.517-1.154-1.154s.518-1.154,1.154-1.154c5.426,0,9.841,4.415,9.841,9.841s-4.415,9.841-9.841,9.841Z" style="fill: #000; stroke-width: 0px;"/>
  <path d="M103.091,119.449c-5.42-.006-9.836-4.421-9.842-9.842,0-.635.517-1.153,1.154-1.153s1.154.517,1.154,1.154c0,4.154,3.379,7.533,7.533,7.533s7.534-3.379,7.534-7.533-3.379-7.534-7.534-7.534c-.636,0-1.154-.517-1.154-1.154s.517-1.154,1.154-1.154c5.426,0,9.841,4.415,9.841,9.841s-4.414,9.84-9.84,9.841h0Z" style="fill: #000; stroke-width: 0px;"/>
</svg>