<?xml version="1.0" encoding="UTF-8"?>
<svg id="Layer_1" data-name="Layer 1" xmlns="http://www.w3.org/2000/svg" version="1.1" viewBox="0 0 128 128">
  <path d="M20.656,27.225c-.307,0-.597-.12-.814-.337-.217-.218-.337-.507-.337-.814.006-5.408,4.412-9.814,9.821-9.82.634,0,1.15.516,1.15,1.151s-.516,1.151-1.151,1.151c-4.145,0-7.517,3.372-7.517,7.517,0,.635-.516,1.151-1.151,1.151Z" style="fill: #000; stroke-width: 0px;"/>
  <path d="M92.174,120.415c-1.83,0-3.319-1.489-3.319-3.319v-37.858h-49.71v37.858c0,1.83-1.489,3.319-3.318,3.319h-13.003c-1.83,0-3.319-1.489-3.319-3.319v-37.858H3.319c-1.83,0-3.319-1.489-3.319-3.318v-17.338c0-1.83,1.489-3.318,3.319-3.318h16.186v-13.523l-.447-.302c-1.278-.864-2.445-1.886-3.471-3.037l-.303-.34H3.319c-1.83,0-3.319-1.489-3.319-3.319v-17.338c0-1.83,1.489-3.318,3.319-3.318h11.965l.303-.34c3.487-3.916,8.494-6.161,13.738-6.161s10.251,2.246,13.738,6.161l.303.34h41.269l.303-.34c3.487-3.916,8.494-6.161,13.738-6.161s10.25,2.246,13.738,6.161l.303.34h11.966c1.83,0,3.318,1.489,3.318,3.318v17.338c0,1.83-1.489,3.319-3.318,3.319h-11.966l-.303.34c-1.026,1.152-2.193,2.173-3.471,3.037l-.447.302v13.523h16.186c1.83,0,3.318,1.489,3.318,3.318v17.338c0,1.83-1.489,3.318-3.318,3.318h-16.186v37.858c0,1.83-1.489,3.319-3.318,3.319h-13.003ZM91.158,118.112h15.035v-38.874h-6.366v7.517c0,.635-.516,1.152-1.151,1.152s-1.151-.517-1.151-1.152v-7.517h-6.366v38.874ZM21.807,118.112h15.035v-38.874h-6.366v7.517c0,.635-.516,1.152-1.151,1.152s-1.151-.517-1.151-1.152v-7.517h-6.366v38.874ZM103.621,76.936h22.076v-19.369h-2.707l-19.369,19.369ZM79.782,76.936h20.584l19.369-19.369h-20.584l-19.369,19.369ZM55.943,76.936h20.584l19.369-19.369h-20.584l-19.369,19.369ZM32.104,76.936h20.584l19.369-19.369h-20.584l-19.369,19.369ZM8.265,76.936h20.584l19.369-19.369h-20.584l-19.369,19.369ZM2.303,76.936h2.707l19.369-19.369H2.303v19.369ZM91.158,55.264h15.035v-12.269l-1.361.491c-1.98.715-4.051,1.077-6.157,1.077s-4.177-.363-6.157-1.077l-1.361-.491v12.269ZM43.063,38.402c-1.026,1.152-2.194,2.174-3.471,3.037l-.447.302v13.523h49.71v-13.523l-.447-.302c-1.278-.864-2.445-1.886-3.47-3.037l-.303-.34h-41.269l-.303.34ZM21.807,55.264h15.035v-12.269l-1.361.491c-1.98.715-4.051,1.077-6.157,1.077s-4.177-.363-6.157-1.077l-1.361-.491v12.269ZM98.674,9.888c-8.914.01-16.175,7.271-16.185,16.185,0,8.926,7.261,16.187,16.186,16.187s16.186-7.261,16.186-16.186-7.261-16.186-16.186-16.186h-.001ZM29.324,9.888c-8.914.01-16.175,7.271-16.185,16.185,0,8.926,7.261,16.187,16.186,16.187s16.186-7.261,16.186-16.186-7.261-16.186-16.186-16.186h-.001ZM115.214,17.862c2.587,5.142,2.587,11.282,0,16.424l-.741,1.472h11.225v-19.369h-11.225l.741,1.472ZM45.863,17.862c2.587,5.142,2.587,11.282,0,16.424l-.741,1.472h37.755l-.741-1.472c-2.587-5.142-2.587-11.282,0-16.424l.741-1.472h-37.755l.741,1.472ZM2.303,35.759h11.225l-.741-1.472c-2.587-5.142-2.587-11.282,0-16.424l.741-1.472H2.303v19.369Z" style="fill: #000; stroke-width: 0px;"/>
  <path d="M90.006,27.225c-.308,0-.597-.12-.814-.337-.217-.218-.337-.507-.337-.814.006-5.408,4.412-9.814,9.821-9.82.634,0,1.15.516,1.15,1.151s-.516,1.151-1.151,1.151c-4.145,0-7.517,3.372-7.517,7.517,0,.635-.516,1.151-1.151,1.151Z" style="fill: #000; stroke-width: 0px;"/>
</svg>