<?xml version="1.0" encoding="UTF-8"?>
<svg id="Layer_1" data-name="Layer 1" xmlns="http://www.w3.org/2000/svg" version="1.1" viewBox="0 0 98 128">
  <path d="M49.032,128c-.641,0-1.265-.185-1.802-.535C42.416,124.325.203,95.437.203,48.837c-.002-13.036,5.334-25.746,14.641-34.872C24.027,4.96,36.168,0,49.029,0c.321,0,.645.003.967.01,13.064.25,25.575,5.958,34.325,15.66,9.462,10.425,14.329,24.457,13.353,38.5-2.999,43.486-42.363,70.373-46.841,73.296-.537.35-1.16.535-1.802.535ZM48.901,2.312c-12.221,0-23.742,4.727-32.441,13.311C7.557,24.295,2.469,36.405,2.505,48.84c0,45.442,41.275,73.632,45.981,76.697l.556.362.555-.364c4.379-2.869,42.863-29.247,45.78-71.525.934-13.413-3.711-26.818-12.745-36.776C74.306,7.996,62.396,2.556,49.958,2.313h-1.057Z" style="fill: #000; stroke-width: 0px;"/>
  <path d="M49.032,117.34c-.736,0-1.434-.235-2.019-.681-3.663-2.803-7.194-5.861-10.493-9.087-.981-.949-1.284-2.373-.774-3.634.51-1.26,1.717-2.075,3.076-2.075h20.395c1.368,0,2.576.814,3.086,2.075.51,1.263.206,2.69-.775,3.634-3.301,3.223-6.825,6.28-10.479,9.089-.582.442-1.28.678-2.015.678ZM38.111,105.908c3.24,3.167,6.706,6.168,10.302,8.92l.619.473.618-.475c3.581-2.752,7.034-5.748,10.261-8.903l1.757-1.757h-25.34l1.783,1.742Z" style="fill: #000; stroke-width: 0px;"/>
  <path d="M49.03,88.996c-22.144,0-40.159-18.015-40.159-40.159S26.887,8.678,49.03,8.678s40.159,18.015,40.159,40.159c-.012,10.721-4.194,20.802-11.776,28.383-7.582,7.582-17.662,11.764-28.385,11.776h.001ZM36.657,84.631l1.032.324c3.674,1.154,7.49,1.739,11.341,1.739s7.667-.585,11.341-1.739l1.032-.324-2.49-6.47h-19.768l-2.49,6.47ZM28.071,80.316l.775.492c1.497.95,3.076,1.803,4.694,2.534l.98.443,6.336-16.46h-6.283l-6.501,12.991ZM63.545,83.785l.98-.443c1.618-.731,3.197-1.584,4.694-2.534l.775-.492-6.506-12.991h-6.283l6.341,16.46ZM49.03,17.347c.635,0,1.151.516,1.151,1.151v3.183h14.018c3.025,0,5.485,2.461,5.485,5.485v34.674c-.007,2-1.107,3.835-2.871,4.786l-.868.468,5.96,11.898.982-.797c13.765-11.173,17.938-30.099,10.149-46.024-6.307-12.895-19.652-21.228-33.997-21.228-2.871,0-5.752.331-8.563.983C23.207,15.931,11.157,31.11,11.174,48.838c0,11.448,5.103,22.149,13.999,29.357l.982.796,5.959-11.897-.868-.468c-1.764-.951-2.864-2.786-2.871-4.79V27.166c0-3.025,2.461-5.485,5.485-5.485h14.019v-3.183c0-.635.516-1.151,1.151-1.151ZM40.033,75.858h17.996l-3.288-8.533h-11.419l-3.288,8.533ZM30.678,61.84c0,1.755,1.428,3.183,3.183,3.183h30.339c1.755,0,3.183-1.428,3.183-3.183v-3.183h-5.35c-.635,0-1.151-.516-1.151-1.151s.516-1.151,1.151-1.151h5.35v-6.366H30.678v6.366h5.35c.635,0,1.151.516,1.151,1.151s-.516,1.151-1.151,1.151h-5.35v3.183ZM50.182,47.686h17.201v-12.867h-17.201v12.867ZM30.678,47.686h17.201v-12.867h-17.201v12.867ZM33.861,23.983c-1.755,0-3.183,1.428-3.183,3.183v5.35h36.705v-5.35c0-1.755-1.428-3.183-3.183-3.183h-30.339Z" style="fill: #000; stroke-width: 0px;"/>
</svg>