<?xml version="1.0" encoding="UTF-8"?>
<svg id="Layer_1" data-name="Layer 1" xmlns="http://www.w3.org/2000/svg" version="1.1" viewBox="0 0 128 128">
  <path d="M88.461,128c-.635,0-1.151-.516-1.151-1.151s.516-1.151,1.151-1.151h5.35v-19.117l-.506-.293c-2.614-1.515-4.759-3.718-6.203-6.372l-.128-.235L3.96,47.872c-3.155-1.979-4.261-5.976-2.571-9.297l.026-.051.02-.054c.012-.033.027-.065.043-.096,1.209-2.283,3.565-3.7,6.149-3.7,1.058,0,2.081.237,3.04.704l83.145,40.894v-27.847l-7.399,7.387c-1.037,1.038-2.415,1.609-3.881,1.609s-2.844-.571-3.88-1.608l-1.517-1.517c-2.133-2.139-2.133-5.622.001-7.762l15.045-15.043-15.053-15.046c-2.132-2.138-2.132-5.62.001-7.76l1.531-1.531c1.036-1.036,2.414-1.607,3.879-1.607s2.843.571,3.879,1.607l7.393,7.393v-6.895c0-4.22,3.433-7.653,7.653-7.653s7.653,3.433,7.653,7.653v6.906l7.399-7.387c1.037-1.038,2.415-1.609,3.881-1.609s2.844.571,3.88,1.608l1.517,1.517c2.133,2.139,2.133,5.622,0,7.762l-15.045,15.043,15.052,15.046c2.132,2.138,2.132,5.62-.001,7.76l-1.531,1.531c-1.036,1.036-2.414,1.607-3.879,1.607s-2.843-.571-3.879-1.607l-7.393-7.393v29.332l.509.293c5.034,2.897,8.16,8.305,8.16,14.112s-3.127,11.215-8.16,14.112l-.509.293v19.119h5.35c.635,0,1.151.516,1.151,1.151s-.516,1.151-1.151,1.151h-26.006ZM96.114,125.697h10.701v-18.08l-1.279.342c-1.328.355-2.698.535-4.072.535s-2.744-.18-4.072-.535l-1.278-.342v18.08ZM101.464,78.154c-5.69,0-10.774,3.397-12.952,8.654-2.178,5.257-.985,11.254,3.039,15.278,2.648,2.648,6.169,4.106,9.916,4.106,1.848,0,3.652-.359,5.362-1.067,5.257-2.178,8.654-7.262,8.654-12.952-.008-7.723-6.296-14.011-14.018-14.019h0ZM69.805,86.241l15.672,9.78-.233-2.086c-.411-3.679.468-7.418,2.477-10.528l1.414-2.19-19.33,5.023ZM57.449,78.527l9.666,6.034,25.084-6.517-11.352-5.585-23.398,6.067ZM45.105,70.812l9.668,6.033,22.908-5.944-11.374-5.594-21.202,5.504ZM96.114,46.12v30.61l1.278-.342c1.327-.355,2.697-.535,4.072-.535s2.744.18,4.072.535l1.279.342v-30.603l-5.35-5.35-5.351,5.343ZM32.747,63.102l9.667,6.033,20.728-5.383-11.373-5.596-19.022,4.946ZM20.371,55.384l9.668,6.036,18.55-4.82-11.339-5.578-16.879,4.362ZM82.54,7.853c-.85,0-1.649.331-2.25.932l-1.532,1.532c-1.241,1.241-1.241,3.26,0,4.501l39.38,39.38c.601.601,1.4.932,2.25.932s1.649-.331,2.25-.932l1.532-1.532c1.241-1.241,1.241-3.26,0-4.501L84.79,8.785c-.601-.601-1.4-.932-2.25-.932ZM78.764,48.17c-.594.592-.934,1.414-.934,2.253s.341,1.661.935,2.254l1.516,1.516c.6.602,1.401.934,2.253.934.84,0,1.661-.341,2.253-.935l15.043-15.043-6.023-6.022-15.043,15.043ZM8.02,47.666l9.663,6.036,16.404-4.243-11.36-5.591-14.708,3.798ZM7.63,36.98c-1.663,0-3.211.895-4.04,2.336l-.019.033s-.056.119-.064.135c-1.156,2.129-.549,4.805,1.413,6.225l.387.28,14.24-3.676-9.894-4.871c-.644-.309-1.322-.464-2.023-.464ZM120.394,7.858c-.852,0-1.652.332-2.253.935l-15.043,15.043,6.023,6.022,15.043-15.043c.602-.6.934-1.401.934-2.253s-.332-1.652-.935-2.254l-1.516-1.516c-.601-.602-1.401-.934-2.253-.934ZM101.464,2.303c-2.95,0-5.35,2.4-5.35,5.35v9.211l5.35,5.35,5.35-5.35V7.653c0-2.95-2.4-5.35-5.35-5.35Z" style="fill: #000; stroke-width: 0px;"/>
  <path d="M101.464,99.826c-4.22,0-7.653-3.433-7.653-7.653s3.433-7.653,7.653-7.653,7.653,3.433,7.653,7.653-3.433,7.653-7.653,7.653ZM101.464,86.823c-2.95,0-5.35,2.4-5.35,5.35s2.4,5.35,5.35,5.35,5.35-2.4,5.35-5.35-2.4-5.35-5.35-5.35Z" style="fill: #000; stroke-width: 0px;"/>
  <path d="M5.279,128c-1.149,0-2.231-.604-2.831-1.576-.601-.974-.654-2.214-.139-3.236l2.168-4.337c.562-1.124,1.692-1.822,2.949-1.822h2.303l5.316-10.611-1.47-.145c-1.079-.107-2.034-.738-2.554-1.69-.52-.951-.537-2.096-.045-3.062l2.171-4.341c.562-1.124,1.692-1.822,2.949-1.822h49.354c1.267,0,2.398.702,2.959,1.831l2.168,4.337c.491.968.472,2.11-.046,3.059-.518.948-1.47,1.58-2.545,1.69l-1.465.15,5.314,10.606h2.283c1.277,0,2.406.698,2.968,1.822l2.167,4.334c.517,1.025.463,2.265-.138,3.238-.609.987-1.664,1.576-2.824,1.576H5.279ZM3.636,125.697h74.308l-3.199-6.366H6.819l-3.183,6.366ZM56.844,117.028h12.417l-5.35-10.7h-9.833l2.766,10.7ZM41.934,117.028h12.531l-2.766-10.7h-9.765v10.7ZM27.1,117.028h12.531v-10.7h-9.765l-2.766,10.7ZM12.305,117.028h12.417l2.766-10.7h-9.833l-5.35,10.7ZM12.305,104.025h56.956l-3.183-6.366H15.488l-3.183,6.366Z" style="fill: #000; stroke-width: 0px;"/>
</svg>