<?xml version="1.0" encoding="UTF-8"?>
<svg id="Layer_1" data-name="Layer 1" xmlns="http://www.w3.org/2000/svg" version="1.1" viewBox="0 0 128 128">
  <path d="M116.281,128c-1.83,0-3.318-1.489-3.318-3.318v-56.347c-.034-21.198-16.638-38.729-37.801-39.913l-1.073-.06v23.652h9.685c3.025,0,5.486,2.461,5.486,5.486v34.675c0,3.025-2.461,5.486-5.486,5.486H5.754c-3.025,0-5.486-2.461-5.486-5.486v-34.675c0-3.025,2.461-5.486,5.486-5.486h9.685v-23.704H3.587c-1.83,0-3.319-1.489-3.319-3.319v-8.669c0-1.83,1.489-3.318,3.319-3.318h109.376V3.319C112.963,1.489,114.451,0,116.281,0h8.669c.886,0,1.72.345,2.346.972.627.627.972,1.46.972,2.347v121.363c0,1.83-1.489,3.318-3.318,3.318h-8.669ZM115.265,125.697h10.701V2.303h-10.701v123.395ZM5.754,54.315c-1.755,0-3.183,1.428-3.183,3.183v34.675c0,1.755,1.428,3.183,3.183,3.183h78.019c1.755,0,3.183-1.428,3.183-3.183v-34.675c0-1.755-1.428-3.183-3.183-3.183H5.754ZM91.263,30.239c8.592,4.157,15.613,11.178,19.77,19.77l1.93,3.99v-25.69h-25.69l3.99,1.93ZM63.253,52.013h8.533v-23.704h-8.533v23.704ZM28.578,52.013h32.372v-23.704H28.578v23.704ZM17.742,52.013h8.533v-23.704h-8.533v23.704ZM2.571,26.006h110.391v-10.701H2.571v10.701Z" style="fill: #000; stroke-width: 0px;"/>
  <path d="M12.256,86.823c-.635,0-1.151-.516-1.151-1.151v-21.672c0-.635.516-1.151,1.151-1.151h65.016c.635,0,1.151.516,1.151,1.151v21.672c0,.635-.516,1.151-1.151,1.151H12.256ZM33.623,84.521h42.497v-19.369h-32.812l-9.685,19.369ZM22.787,84.521h8.262l9.685-19.369h-8.262l-9.685,19.369ZM13.407,84.521h6.806l9.685-19.369H13.407v19.369Z" style="fill: #000; stroke-width: 0px;"/>
</svg>