<?xml version="1.0" encoding="UTF-8"?>
<svg id="Layer_1" data-name="Layer 1" xmlns="http://www.w3.org/2000/svg" version="1.1" viewBox="0 0 128 128">
  <path d="M7.653,128c-1.83,0-3.318-1.489-3.318-3.318v-11.852h-1.016c-1.83,0-3.319-1.489-3.319-3.318v-4.334c0-1.83,1.489-3.319,3.319-3.319h1.016v-47.507l-.709-.224c-.92-.291-1.661-.968-2.035-1.857-.374-.889-.338-1.893.097-2.754l9.149-18.295V11.987c0-1.83,1.489-3.319,3.319-3.319h1.016V1.151C15.17.516,15.687,0,16.322,0s1.151.516,1.151,1.151v7.517h4.199V1.151C21.672.516,22.188,0,22.823,0s1.151.516,1.151,1.151v7.517h1.016c1.83,0,3.319,1.489,3.319,3.319v18.353h71.382V11.987c0-1.83,1.489-3.319,3.318-3.319h1.016V1.151C104.025.516,104.542,0,105.177,0s1.151.516,1.151,1.151v7.517h4.199V1.151C110.527.516,111.043,0,111.678,0s1.151.516,1.151,1.151v7.517h1.016c1.83,0,3.318,1.489,3.318,3.319v19.233l9.147,18.291c.438.865.473,1.868.1,2.758-.374.889-1.116,1.566-2.035,1.857l-.709.224v47.507h1.016c1.83,0,3.318,1.489,3.318,3.319v4.334c0,1.83-1.489,3.318-3.318,3.318h-1.016v11.852c0,1.83-1.489,3.318-3.319,3.318H7.653ZM6.637,125.697h114.726v-12.868h-8.533v5.35c0,.635-.516,1.151-1.151,1.151s-1.151-.516-1.151-1.151v-5.35H17.473v5.35c0,.635-.516,1.151-1.151,1.151s-1.151-.516-1.151-1.151v-5.35H6.637v12.868ZM2.303,110.527h123.395v-6.366H2.303v6.366ZM64,62.849c9,0,16.322,7.322,16.322,16.322v22.688h41.041v-47.543H6.637v47.543h41.041v-22.688c0-9,7.322-16.322,16.322-16.322ZM65.151,101.858h12.868v-22.688c-.013-6.855-4.926-12.662-11.682-13.81l-1.186-.201v36.699ZM61.663,65.361c-6.756,1.148-11.669,6.955-11.682,13.808v22.69h12.868v-36.699l-1.186.201ZM3.014,52.013h121.983l-9.697-19.369H12.699L3.014,52.013ZM101.994,30.341h12.868V10.971h-12.868v19.369ZM13.139,30.341h12.868V10.971h-12.868v19.369Z" style="fill: #000; stroke-width: 0px;"/>
  <path d="M15.177,45.647c-.401,0-.767-.204-.978-.546-.211-.342-.23-.76-.05-1.12l2.167-4.334c.185-.378.554-.624.965-.65.024-.001.048-.002.072-.002.389,0,.749.194.962.519.226.345.251.787.063,1.155l-1.34,2.675h10.119c.635,0,1.151.516,1.151,1.151s-.516,1.151-1.151,1.151h-11.98Z" style="fill: #000; stroke-width: 0px;"/>
  <path d="M16.322,91.158c-1.83,0-3.318-1.489-3.318-3.319v-6.501c0-3.025,2.461-5.486,5.486-5.486s5.486,2.461,5.486,5.486v6.501c0,1.83-1.489,3.319-3.318,3.319h-4.334ZM18.489,78.154c-1.755,0-3.183,1.428-3.183,3.183v7.517h6.366v-7.517c0-1.755-1.428-3.183-3.183-3.183Z" style="fill: #000; stroke-width: 0px;"/>
  <path d="M33.659,91.158c-1.83,0-3.318-1.489-3.318-3.319v-6.501c0-3.025,2.461-5.486,5.486-5.486s5.486,2.461,5.486,5.486v6.501c0,1.83-1.489,3.319-3.318,3.319h-4.334ZM35.827,78.154c-1.755,0-3.183,1.428-3.183,3.183v7.517h6.366v-7.517c0-1.755-1.428-3.183-3.183-3.183Z" style="fill: #000; stroke-width: 0px;"/>
  <path d="M90.006,91.158c-1.83,0-3.319-1.489-3.319-3.319v-6.501c0-3.025,2.461-5.486,5.486-5.486s5.486,2.461,5.486,5.486v6.501c0,1.83-1.489,3.319-3.318,3.319h-4.334ZM92.174,78.154c-1.755,0-3.183,1.428-3.183,3.183v7.517h6.366v-7.517c0-1.755-1.428-3.183-3.183-3.183Z" style="fill: #000; stroke-width: 0px;"/>
  <path d="M107.344,91.158c-1.83,0-3.319-1.489-3.319-3.319v-6.501c0-3.025,2.461-5.486,5.486-5.486s5.486,2.461,5.486,5.486v6.501c0,1.83-1.489,3.319-3.318,3.319h-4.334ZM109.511,78.154c-1.755,0-3.183,1.428-3.183,3.183v7.517h6.366v-7.517c0-1.755-1.428-3.183-3.183-3.183Z" style="fill: #000; stroke-width: 0px;"/>
  <path d="M55.331,84.656c-.635,0-1.151-.516-1.151-1.151s.516-1.151,1.151-1.151h2.167c.635,0,1.151.516,1.151,1.151s-.516,1.151-1.151,1.151h-2.167Z" style="fill: #000; stroke-width: 0px;"/>
  <path d="M70.501,84.656c-.635,0-1.151-.516-1.151-1.151s.516-1.151,1.151-1.151h2.167c.635,0,1.151.516,1.151,1.151s-.516,1.151-1.151,1.151h-2.167Z" style="fill: #000; stroke-width: 0px;"/>
</svg>