<?xml version="1.0" encoding="UTF-8"?>
<svg id="Layer_1" data-name="Layer 1" xmlns="http://www.w3.org/2000/svg" version="1.1" viewBox="0 0 128 89">
  <path d="M109.511,88.991c-5.415,0-9.82-4.405-9.82-9.82.001-1.36.281-2.68.832-3.923l.632-1.427h-9.294l.632,1.427c.551,1.243.831,2.563.832,3.924-.014,4.606-3.299,8.637-7.812,9.579-.662.138-1.34.208-2.012.208-3.889,0-7.415-2.302-8.983-5.864l-.267-.606h-20.501l-.267.606c-1.569,3.562-5.095,5.864-8.983,5.864-.673,0-1.35-.07-2.012-.208-4.513-.943-7.799-4.973-7.813-9.583.001-1.356.281-2.676.832-3.92l.632-1.427h-9.294l.632,1.427c.551,1.244.831,2.564.832,3.924,0,5.414-4.405,9.819-9.82,9.819s-9.82-4.405-9.82-9.82c.004-1.399.304-2.755.891-4.028l.547-1.187-1.285-.238c-2.596-.48-4.483-2.745-4.487-5.385v-5.523l-.51-.293c-1.019-.586-1.654-1.679-1.658-2.854V19.466l-.51-.293c-1.019-.585-1.654-1.679-1.657-2.854v-2.164C.009,6.359,6.359.009,14.156,0h99.69c7.795.009,14.146,6.359,14.155,14.156v2.166c-.003,1.172-.639,2.266-1.657,2.851l-.51.293v40.2c-.003,1.172-.639,2.266-1.658,2.851l-.51.293v5.525c-.004,2.638-1.892,4.903-4.487,5.383l-1.285.238.547,1.187c.587,1.273.887,2.629.891,4.031,0,5.412-4.405,9.817-9.82,9.817ZM109.511,71.653c-4.145,0-7.518,3.372-7.518,7.517s3.373,7.517,7.518,7.517,7.517-3.372,7.517-7.517-3.372-7.517-7.517-7.517ZM83.505,71.653c-4.145,0-7.517,3.372-7.517,7.517s3.372,7.517,7.517,7.517,7.518-3.372,7.518-7.517-3.373-7.517-7.518-7.517ZM44.495,71.653c-4.145,0-7.517,3.372-7.517,7.517s3.372,7.517,7.517,7.517,7.517-3.372,7.517-7.517-3.372-7.517-7.517-7.517ZM18.489,71.653c-4.145,0-7.517,3.372-7.517,7.517s3.372,7.517,7.517,7.517,7.518-3.372,7.518-7.517-3.372-7.517-7.518-7.517ZM53.484,75.248c.551,1.244.831,2.564.832,3.924v1.015h19.369v-1.015c.002-1.36.282-2.68.833-3.924l.632-1.427h-22.297l.632,1.427ZM109.511,69.35c2.12,0,4.132.678,5.82,1.96l.272.207h2.577c1.755,0,3.183-1.428,3.183-3.183v-5.35H6.637v5.35c0,1.755,1.428,3.183,3.183,3.183h2.576l.272-.207c1.688-1.282,3.7-1.96,5.82-1.96s4.132.678,5.82,1.96l.273.207h13.822l.273-.207c1.687-1.282,3.7-1.96,5.82-1.96s4.132.678,5.82,1.96l.272.207h26.825l.272-.207c1.688-1.282,3.7-1.96,5.82-1.96s4.132.678,5.82,1.96l.272.207h13.822l.272-.207c1.688-1.282,3.7-1.96,5.82-1.96ZM111.678,26.006c1.83,0,3.318,1.489,3.318,3.319v31.357h8.533V19.64H4.47v41.041h90.887v-31.357c0-1.83,1.489-3.319,3.318-3.319h13.003ZM97.659,60.682h15.035v-8.534h-3.183c-.635,0-1.151-.516-1.151-1.151s.516-1.151,1.151-1.151h3.183v-6.366h-15.035v17.202ZM97.659,41.177h15.035v-12.868h-15.035v12.868ZM14.153,2.303c-6.527.008-11.843,5.324-11.851,11.851v3.184h123.395v-3.183c-.008-6.528-5.324-11.844-11.851-11.852h-7.519v3.183c0,.635-.516,1.151-1.151,1.151s-1.152-.516-1.152-1.151v-3.183H23.975v3.183c0,.635-.516,1.151-1.151,1.151s-1.151-.516-1.151-1.151v-3.183h-7.519Z" style="fill: #000; stroke-width: 0px;"/>
  <path d="M18.489,80.322c-.635,0-1.151-.516-1.151-1.151s.516-1.151,1.151-1.151,1.151.516,1.151,1.151-.516,1.151-1.151,1.151Z" style="fill: #000; stroke-width: 0px;"/>
  <path d="M44.495,80.322c-.635,0-1.151-.516-1.151-1.151s.516-1.151,1.151-1.151,1.151.516,1.151,1.151-.516,1.151-1.151,1.151Z" style="fill: #000; stroke-width: 0px;"/>
  <path d="M83.505,80.322c-.635,0-1.151-.516-1.151-1.151s.516-1.151,1.151-1.151,1.151.516,1.151,1.151-.516,1.151-1.151,1.151Z" style="fill: #000; stroke-width: 0px;"/>
  <path d="M109.511,80.322c-.635,0-1.151-.516-1.151-1.151s.516-1.151,1.151-1.151,1.151.516,1.151,1.151-.516,1.151-1.151,1.151Z" style="fill: #000; stroke-width: 0px;"/>
  <path d="M16.322,47.814c-1.83,0-3.318-1.489-3.318-3.318v-13.003c0-1.83,1.489-3.318,3.318-3.318h13.003c1.83,0,3.318,1.489,3.318,3.318v13.003c0,1.83-1.489,3.318-3.318,3.318h-13.003ZM15.306,45.511h15.035v-15.035h-15.035v15.035Z" style="fill: #000; stroke-width: 0px;"/>
  <path d="M42.328,47.814c-1.83,0-3.318-1.489-3.318-3.318v-13.003c0-1.83,1.489-3.318,3.318-3.318h13.003c1.83,0,3.318,1.489,3.318,3.318v13.003c0,1.83-1.489,3.318-3.318,3.318h-13.003ZM41.312,45.511h15.035v-15.035h-15.035v15.035Z" style="fill: #000; stroke-width: 0px;"/>
  <path d="M68.334,47.814c-1.83,0-3.318-1.489-3.318-3.318v-13.003c0-1.83,1.489-3.318,3.318-3.318h13.003c1.83,0,3.318,1.489,3.318,3.318v13.003c0,1.83-1.489,3.318-3.318,3.318h-13.003ZM67.318,45.511h15.035v-15.035h-15.035v15.035Z" style="fill: #000; stroke-width: 0px;"/>
</svg>