<?xml version="1.0" encoding="utf-8"?>
<svg version="1.1" xmlns="http://www.w3.org/2000/svg" xmlns:xlink="http://www.w3.org/1999/xlink" x="0px" y="0px"
	 width="410px" height="410px" viewBox="0 0 410 410" style="enable-background:new 0 0 410 410;" xml:space="preserve">
<circle style="fill-rule:evenodd;clip-rule:evenodd;fill:#227D9A;" cx="205" cy="205" r="205"/>
<path style="fill-rule:evenodd;clip-rule:evenodd;fill:#2C0541;" d="M410,342.727h-76.003c6.321-5.521,10.32-13.635,10.32-22.687
	c0-1.929-0.188-3.813-0.535-5.642h31.477V86.838h-16.996V71.373h-33.382V42.632H212.192V26.959H107.079v15.673H90.552v28.741h-35.65
	v15.465h-17.63v45.629h17.63v82.111H38.056v99.82h19.795c-0.347,1.828-0.536,3.713-0.536,5.642c0,9.052,3.999,17.165,10.464,22.687
	H0.359l-0.144,25.979h36.767v14.334h17.829v-14.334h33.383v14.334h17.829v-14.334h33.383v14.334h17.829v-14.334h33.383v14.334
	h17.829v-14.334h33.383v14.334h17.829v-14.334h33.383v14.334h17.829v-14.334h33.384v14.334h17.828v-14.334H410V342.727z
	 M294.402,342.727h-64.123c6.321-5.521,10.32-13.635,10.32-22.687c0-1.929-0.188-3.813-0.535-5.642h44.552
	c-0.347,1.828-0.535,3.713-0.535,5.642C284.081,329.092,288.08,337.205,294.402,342.727z M117.551,320.04
	c0-1.929-0.189-3.813-0.535-5.642h25.392c-0.347,1.828-0.536,3.713-0.536,5.642c0,9.052,3.999,17.165,10.32,22.687H107.23
	C113.552,337.205,117.551,329.092,117.551,320.04z"/>
<path style="fill-rule:evenodd;clip-rule:evenodd;fill:#DB7C1B;" d="M358.207,86.838v29.154H54.902V86.838h52.177V42.632h105.088
	v15.8h112.714v28.406H358.207z M54.982,295.706h303.225v-65.993H54.982V295.706z M79.57,328.85h14.103v-14.103H79.57V328.85z
	 M164.236,328.85h14.103v-14.103h-14.103V328.85z M204.324,328.85h14.103v-14.103h-14.103V328.85z M309.327,328.85h14.103v-14.103
	h-14.103V328.85z"/>
<path style="fill-rule:evenodd;clip-rule:evenodd;fill:#227D9A;" d="M209.161,200.5H106.558v-68.033h102.603V200.5z
	 M340.942,132.467H209.161v39.774h131.781V132.467z"/>
<path style="fill-rule:evenodd;clip-rule:evenodd;fill:#F7C353;" d="M212.167,71.373H107.079V42.632h105.088V71.373z
	 M358.207,86.838h-146.04v14.527h146.04V86.838z M121.593,263.85H72.439v19.22h49.154V263.85z M209.143,263.85h-47.437v19.22h47.437
	V263.85z M209.154,229.713H72.439v34.137h136.714V229.713z"/>
<path style="fill-rule:evenodd;clip-rule:evenodd;fill:#F5FBCF;" d="M212.167,101.365H54.902V86.838h157.265V101.365z
	 M88.915,115.992H72.439v113.721h16.475V115.992z M158.898,115.984h-16.475v113.729h16.475V115.984z M225.636,116h-16.475v113.713
	h16.475V116z M107.079,242.178H88.915v31.081h18.165V242.178z M194.13,242.178h-18.165v31.081h18.165V242.178z M90.896,342.766
	H21.183v13.94h69.713V342.766z M72.439,214.556H54.982v15.157h17.458V214.556z M142.423,214.556H88.915v15.157h53.509V214.556z
	 M209.161,214.556h-50.263v15.157h50.263V214.556z"/>
<path style="fill-rule:evenodd;clip-rule:evenodd;fill:#BD96A5;" d="M88.915,132.467H72.439v-16.475h16.475V132.467z
	 M158.898,115.984h-16.475v16.482h16.475V115.984z M225.636,116h-16.475v16.467h16.475V116z M242.796,229.713h17.265v-97.246
	h-17.265V229.713z M275.449,229.713h17.265v-97.246h-17.265V229.713z M308.398,229.713h17.265v-97.246h-17.265V229.713z
	 M340.942,229.713h17.265v-97.246h-17.265V229.713z M225.636,229.713h17.16v-15.14h-17.16V229.713z M325.663,229.713h15.279v-15.14
	h-15.279V229.713z M392.318,342.727H90.896v13.979h301.422V342.727z"/>
<rect x="212.167" y="71.373" style="fill-rule:evenodd;clip-rule:evenodd;fill:#2C0541;" width="96.666" height="15.465"/>
<rect x="123.681" y="58.061" style="fill-rule:evenodd;clip-rule:evenodd;fill:#2C0541;" width="69.168" height="13.313"/>
<rect x="260.061" y="186.452" style="fill-rule:evenodd;clip-rule:evenodd;fill:#2C0541;" width="15.389" height="90.355"/>
<rect x="292.714" y="186.452" style="fill-rule:evenodd;clip-rule:evenodd;fill:#2C0541;" width="15.685" height="90.355"/>
<rect x="325.656" y="229.713" style="fill-rule:evenodd;clip-rule:evenodd;fill:#2C0541;" width="15.286" height="47.095"/>
<circle style="fill-rule:evenodd;clip-rule:evenodd;fill:#2C0541;" cx="128.558" cy="262.197" r="22"/>
<rect x="121.507" y="255.146" style="fill-rule:evenodd;clip-rule:evenodd;fill:#DB7C1B;" width="14.103" height="14.102"/>
</svg>
